<?xml version="1.0" standalone="no"?>
<!DOCTYPE svg PUBLIC "-//W3C//DTD SVG 20010904//EN"
 "http://www.w3.org/TR/2001/REC-SVG-20010904/DTD/svg10.dtd">
<svg version="1.0" xmlns="http://www.w3.org/2000/svg"
 width="500.000000pt" height="500.000000pt" viewBox="0 0 500.000000 500.000000"
 preserveAspectRatio="xMidYMid meet">
<metadata>
Created by potrace 1.14, written by Peter Selinger 2001-2017
</metadata>
<g transform="translate(0.000000,500.000000) scale(0.100000,-0.100000)"
fill="#000000" stroke="none">
<path d="M0 4594 l0 -406 55 47 c30 26 55 45 55 42 0 -3 -24 -52 -52 -109
l-53 -103 -3 -1851 -2 -1852 65 -61 c75 -70 218 -182 322 -252 l72 -49 1331 0
1331 0 74 50 c188 127 398 314 533 475 61 74 93 101 174 152 54 34 128 82 164
107 76 54 76 53 -37 -116 -141 -209 -319 -406 -519 -573 -52 -43 -99 -82 -104
-87 -6 -4 351 -8 792 -8 l802 0 0 2500 0 2500 -2500 0 -2500 0 0 -406z m2063
261 c137 -14 291 -40 331 -55 18 -6 17 -8 -14 -15 -19 -4 -91 -26 -160 -50
-123 -41 -127 -42 -205 -33 -111 13 -468 3 -595 -16 -385 -59 -744 -200 -1067
-417 l-72 -49 32 56 c18 30 61 99 97 152 66 97 66 97 165 149 109 57 304 137
430 176 156 49 411 96 585 110 118 9 349 5 473 -8z m814 -214 c580 -262 1040
-699 1319 -1254 99 -197 154 -342 204 -537 62 -244 81 -391 86 -674 l3 -229
78 -130 c67 -113 77 -137 81 -187 5 -69 -20 -125 -75 -167 -32 -24 -46 -28
-111 -30 l-75 -2 -29 -93 c-26 -80 -37 -100 -81 -146 -56 -57 -227 -207 -227
-198 0 3 16 40 36 83 94 205 185 482 167 512 -684 1141 -807 1342 -821 1339
-8 -2 -216 -327 -462 -723 -328 -528 -456 -726 -480 -743 -114 -77 -256 -30
-294 99 -14 45 -10 108 9 140 4 8 267 432 584 942 444 717 582 932 604 944 37
19 87 10 114 -20 12 -12 200 -319 418 -682 219 -363 400 -662 402 -665 9 -8
-7 196 -23 310 -139 967 -826 1775 -1759 2066 -49 16 -83 30 -75 32 171 36
252 51 282 51 24 1 71 -14 125 -38z m-2262 -1090 c22 -10 50 -29 61 -42 12
-13 214 -345 449 -737 234 -392 431 -712 437 -710 6 2 210 324 452 716 243
391 452 722 465 736 82 87 246 63 301 -44 25 -50 26 -128 2 -178 -23 -46
-1129 -1830 -1150 -1855 -8 -9 -32 -22 -52 -28 -75 -23 -60 -43 -527 733 -672
1116 -700 1164 -706 1204 -24 149 131 268 268 205z"/>
<path d="M0 76 l0 -76 93 0 92 1 -30 22 c-16 12 -58 46 -92 75 l-63 53 0 -75z"/>
</g>
</svg>
